<svg xmlns="http://www.w3.org/2000/svg" viewBox="0 0 648 648"><defs><style>.cls-1{fill:#3a3acc;}.cls-2{fill:#fff;}</style></defs><g id="Layer_2" data-name="Layer 2"><g id="Layer_1-2" data-name="Layer 1"><rect class="cls-1" width="648" height="648" rx="324"/><path class="cls-2" d="M378.23,77.66C197,39.88,39.88,197,77.66,378.23A248.25,248.25,0,0,0,269.77,570.34C451,608.12,608.12,451,570.34,269.77A248.25,248.25,0,0,0,378.23,77.66ZM367.31,508.19c-137.92,30.62-258.12-89.58-227.5-227.5A185.83,185.83,0,0,1,280.69,139.81c137.92-30.62,258.12,89.58,227.5,227.5A185.83,185.83,0,0,1,367.31,508.19Z"/><path class="cls-2" d="M274,283.31c-28.12,42.72-7,87.48,29.17,100.16A30.76,30.76,0,0,1,324,412.4v1.72c0,20.78-20.06,35.86-39.92,29.75a158,158,0,0,1-30.84-13.34,93.15,93.15,0,0,1-35.48-35.29c-46.8-82.6-4.62-166.47,65.36-190.46C303.17,197.91,324,213,324,234.23V235a31.23,31.23,0,0,1-21.57,29.56,82.27,82.27,0,0,0-18.78,9.17A33.21,33.21,0,0,0,274,283.31Z"/><circle class="cls-2" cx="324" cy="324" r="31.5"/><rect class="cls-2" x="371.25" y="292.5" width="110.25" height="63" rx="31.5"/></g></g></svg>